<svg xmlns="http://www.w3.org/2000/svg" viewBox="0 0 155.13 139.78"><title>Asset 2</title><path d="M109.1,0C97.8-.14,84.53,6.82,85.46,19.88c.86,11.86,15.17,15.62,24.9,12.8,4.92-1.42,8.76-5.08,8.21-10.49-.08-.78-1.29-.81-1.24,0,.83,14.55-28.63,11.69-29.78-2.31-1.24-15,16.37-19,27.76-17.18,11,1.79,22.11,6.76,29.47,15.32,8.41,9.8,10.73,23.45,4.29,34.93C143.93,62.1,134.89,68,125,70.74c1-8.15-.54-16.49-7.85-21.11C108.18,44,96,48.74,94.9,59.77c-1.22,12.41,13.33,15.71,22.82,14.59,1.59-.19,3.17-.46,4.74-.79a49.56,49.56,0,0,1-11.32,22.5c-7.18,8.28-16.77,14.1-27.08,17.61C87,95.91,70,77.57,50.64,77,40,76.64,29,82.66,28.62,94.35c-.42,12.77,10.18,22.08,21.86,24.59,9.89,2.13,20.73.94,30.7-2.07A29.72,29.72,0,0,1,69.91,131c-17.06,11.7-41.71,7.6-55.75-7-17-17.65-16.95-52.33,4.62-66.67C41.72,42.07,79.4,55.74,80,85.31a1,1,0,0,0,2,0c-.56-29.83-36.1-44.07-60.72-31.77C-3.55,66-5.94,102.87,10.41,122.83c15.8,19.28,49.07,23.88,66.76,4.53a27.21,27.21,0,0,0,6.36-11.24A85.53,85.53,0,0,0,92,112.78c13-6,24.08-16.33,29.65-29.7a49.34,49.34,0,0,0,3-10c11.05-2.87,21.21-9.45,26.65-19.72C166.08,25.32,135.32.33,109.1,0ZM82,114.37c-10.67,3.28-23,5.11-33.89,1.82C37.35,113,27.64,102,31.29,90.14,34.71,79.07,48.55,77.34,58.16,80,68.54,82.89,78,91.18,81.44,101.52A23.08,23.08,0,0,1,82,114.37Zm38.6-42.59C111.1,73.53,92,70.91,97.86,56.63a11.76,11.76,0,0,1,14.27-7c7.27,1.9,10.83,8.76,11,15.83a36.84,36.84,0,0,1-.33,5.84C122.07,71.47,121.31,71.64,120.55,71.78Z" style="fill:#1d1d1b"/></svg>