<svg xmlns="http://www.w3.org/2000/svg" viewBox="0 0 221.08 136.78"><title>Asset 1</title><g id="Layer_2" data-name="Layer 2"><g id="Layer_1-2" data-name="Layer 1"><path d="M78.79,19C53.5,25.14,25.83,39.8,10.13,61-4.8,81.21-3.81,106.86,17,122.34c20.1,14.93,49.62,15.25,73.46,14,25.06-1.35,50.47-5.71,73.93-14.77,20.42-7.87,43.84-20,53.4-40.92,6.62-14.52,2.67-30.27-6.56-42.62C187.36,6,139.2-5.1,101.7,2.11,76.07,7,54.09,22.15,39.1,43.32c-1.42,2,1.87,3.88,3.27,1.91C71.63,3.91,125.08-5.37,170.45,13c17.38,7,34.73,18.93,43.19,36.14,8.58,17.46,1,34.95-12.55,47.22-19.78,17.94-47.67,26.67-73.41,31.58C100.83,133,72,135.55,45,129.87c-12.13-2.56-24.08-7.47-32.65-16.68C2.07,102.12,1.11,86.4,7.19,73,19.06,46.9,52.07,29.8,78.56,22.93l1.24-.31c2.37-.57,1.36-4.22-1-3.64Z"/></g></g></svg>